<svg xmlns="http://www.w3.org/2000/svg" viewBox="0 0 900 560" role="img" aria-labelledby="t-naturals" preserveAspectRatio="xMidYMid slice">
  <title id="t-naturals">Oilseeds, nuts and natural products</title>
  <defs>
    <linearGradient id="bg" x1="0" y1="0" x2="1" y2="1">
      <stop offset="0%" stop-color="#231a12"/><stop offset="48%" stop-color="#3c2b1c"/><stop offset="100%" stop-color="#5a4227"/>
    </linearGradient>
    <radialGradient id="glow" cx="28%" cy="18%" r="70%">
      <stop offset="0%" stop-color="#ffd98a" stop-opacity=".30"/><stop offset="100%" stop-color="#ffd98a" stop-opacity="0"/>
    </radialGradient>
    <radialGradient id="g0" cx="36%" cy="30%" r="72%"><stop offset="0%" stop-color="#f6efe2"/><stop offset="100%" stop-color="#cbbb9c"/></radialGradient>
    <radialGradient id="g1" cx="36%" cy="30%" r="72%"><stop offset="0%" stop-color="#8a6240"/><stop offset="100%" stop-color="#4d3320"/></radialGradient>
    <radialGradient id="g2" cx="36%" cy="30%" r="72%"><stop offset="0%" stop-color="#f0b03a"/><stop offset="100%" stop-color="#a86a0d"/></radialGradient>
    <radialGradient id="g3" cx="36%" cy="30%" r="72%"><stop offset="0%" stop-color="#c08b5c"/><stop offset="100%" stop-color="#7d4f27"/></radialGradient>
    <radialGradient id="g4" cx="36%" cy="30%" r="72%"><stop offset="0%" stop-color="#fdf6e6"/><stop offset="100%" stop-color="#d9c8a4"/></radialGradient>
    <radialGradient id="g5" cx="36%" cy="30%" r="72%"><stop offset="0%" stop-color="#b9c17a"/><stop offset="100%" stop-color="#7c8339"/></radialGradient>
    <filter id="n"><feTurbulence type="fractalNoise" baseFrequency=".9" numOctaves="3"/><feColorMatrix values="0 0 0 0 0.28 0 0 0 0 0.2 0 0 0 0 0.1 0 0 0 .24 0"/></filter>
  </defs>

  <rect width="900" height="560" fill="url(#bg)"/>
  <rect width="900" height="560" fill="url(#glow)"/>

  <g stroke="#e3bd68" stroke-opacity=".07" stroke-width="1" fill="none">
    <path d="M0 120h900M0 300h900M0 470h900M180 0v560M420 0v560M660 0v560"/>
  </g>

    <g transform="translate(205 205)">
      <circle r="95" fill="#1a120a" fill-opacity=".55"/>
      <circle r="88" fill="url(#g0)"/>
      <circle r="88" fill="none" stroke="#fff3d6" stroke-opacity=".38" stroke-width="2.4"/>
      <g fill="#a3927a" fill-opacity=".42"><circle cx="-28" cy="-20" r="7"/><circle cx="10" cy="-30" r="6"/><circle cx="28" cy="6" r="7"/><circle cx="-12" cy="24" r="6"/><circle cx="-42" cy="12" r="5"/></g>
    </g>
    <g transform="translate(400 150)">
      <circle r="73" fill="#1a120a" fill-opacity=".55"/>
      <circle r="66" fill="url(#g1)"/>
      <circle r="66" fill="none" stroke="#fff3d6" stroke-opacity=".38" stroke-width="2.4"/>
      <g fill="#3a2415" fill-opacity=".45"><ellipse cx="-18" cy="-12" rx="15" ry="7" transform="rotate(-25 -18 -12)"/><ellipse cx="14" cy="10" rx="14" ry="6" transform="rotate(25 14 10)"/></g>
    </g>
    <g transform="translate(580 240)">
      <circle r="83" fill="#1a120a" fill-opacity=".55"/>
      <circle r="76" fill="url(#g2)"/>
      <circle r="76" fill="none" stroke="#fff3d6" stroke-opacity=".38" stroke-width="2.4"/>
      <g fill="#8a5407" fill-opacity=".3"><circle cx="-22" cy="-14" r="8"/><circle cx="12" cy="-24" r="7"/><circle cx="24" cy="8" r="8"/></g>
    </g>
    <g transform="translate(320 372)">
      <circle r="69" fill="#1a120a" fill-opacity=".55"/>
      <circle r="62" fill="url(#g3)"/>
      <circle r="62" fill="none" stroke="#fff3d6" stroke-opacity=".38" stroke-width="2.4"/>
      <g fill="#4d3320" fill-opacity=".42"><ellipse cx="-16" cy="-10" rx="14" ry="6" transform="rotate(-30 -16 -10)"/><ellipse cx="12" cy="8" rx="13" ry="6" transform="rotate(20 12 8)"/></g>
    </g>
    <g transform="translate(518 420)">
      <circle r="63" fill="#1a120a" fill-opacity=".55"/>
      <circle r="56" fill="url(#g4)"/>
      <circle r="56" fill="none" stroke="#fff3d6" stroke-opacity=".38" stroke-width="2.4"/>
      <g fill="#b19a68" fill-opacity=".42"><circle cx="-14" cy="-8" r="6"/><circle cx="10" cy="4" r="6"/><circle cx="-2" cy="16" r="5"/></g>
    </g>
    <g transform="translate(716 152)">
      <circle r="55" fill="#1a120a" fill-opacity=".55"/>
      <circle r="48" fill="url(#g5)"/>
      <circle r="48" fill="none" stroke="#fff3d6" stroke-opacity=".38" stroke-width="2.4"/>
      <g fill="#4c5321" fill-opacity=".4"><circle cx="-12" cy="-8" r="5"/><circle cx="8" cy="-14" r="4"/><circle cx="14" cy="6" r="5"/></g>
    </g>

  <g fill="#ffe6a8" fill-opacity=".5"><circle cx="120" cy="440" r="4"/><circle cx="152" cy="470" r="3"/><circle cx="96" cy="486" r="3"/><circle cx="196" cy="462" r="3"/><circle cx="632" cy="112" r="3"/><circle cx="672" cy="86" r="3"/><circle cx="452" cy="272" r="3"/><circle cx="486" cy="300" r="2.5"/><circle cx="240" cy="316" r="3"/><circle cx="790" cy="300" r="3"/><circle cx="820" cy="400" r="3.5"/><circle cx="60" cy="300" r="3"/></g>
  <rect width="900" height="560" filter="url(#n)" opacity=".48"/>
</svg>
