<svg xmlns="http://www.w3.org/2000/svg" viewBox="0 0 900 560" role="img" aria-labelledby="t-pulses" preserveAspectRatio="xMidYMid slice">
  <title id="t-pulses">Pulses and lentils</title>
  <defs>
    <linearGradient id="bg" x1="0" y1="0" x2="1" y2="1">
      <stop offset="0%" stop-color="#241d13"/><stop offset="48%" stop-color="#3b3120"/><stop offset="100%" stop-color="#57472a"/>
    </linearGradient>
    <radialGradient id="glow" cx="28%" cy="18%" r="70%">
      <stop offset="0%" stop-color="#ffd98a" stop-opacity=".30"/><stop offset="100%" stop-color="#ffd98a" stop-opacity="0"/>
    </radialGradient>
    <radialGradient id="g0" cx="36%" cy="30%" r="72%"><stop offset="0%" stop-color="#f0a355"/><stop offset="100%" stop-color="#b8641a"/></radialGradient>
    <radialGradient id="g1" cx="36%" cy="30%" r="72%"><stop offset="0%" stop-color="#9dbf58"/><stop offset="100%" stop-color="#5a7a2a"/></radialGradient>
    <radialGradient id="g2" cx="36%" cy="30%" r="72%"><stop offset="0%" stop-color="#fdf6e6"/><stop offset="100%" stop-color="#d9c8a4"/></radialGradient>
    <radialGradient id="g3" cx="36%" cy="30%" r="72%"><stop offset="0%" stop-color="#5a4a3c"/><stop offset="100%" stop-color="#241a12"/></radialGradient>
    <radialGradient id="g4" cx="36%" cy="30%" r="72%"><stop offset="0%" stop-color="#a8455c"/><stop offset="100%" stop-color="#6d2233"/></radialGradient>
    <radialGradient id="g5" cx="36%" cy="30%" r="72%"><stop offset="0%" stop-color="#b9c17a"/><stop offset="100%" stop-color="#7c8339"/></radialGradient>
    <filter id="n"><feTurbulence type="fractalNoise" baseFrequency=".9" numOctaves="3"/><feColorMatrix values="0 0 0 0 0.28 0 0 0 0 0.2 0 0 0 0 0.1 0 0 0 .24 0"/></filter>
  </defs>

  <rect width="900" height="560" fill="url(#bg)"/>
  <rect width="900" height="560" fill="url(#glow)"/>

  <g stroke="#e3bd68" stroke-opacity=".07" stroke-width="1" fill="none">
    <path d="M0 120h900M0 300h900M0 470h900M180 0v560M420 0v560M660 0v560"/>
  </g>

    <g transform="translate(205 205)">
      <circle r="95" fill="#1a120a" fill-opacity=".55"/>
      <circle r="88" fill="url(#g0)"/>
      <circle r="88" fill="none" stroke="#fff3d6" stroke-opacity=".38" stroke-width="2.4"/>
      <g fill="#7d3f0c" fill-opacity=".36"><circle cx="-28" cy="-20" r="7"/><circle cx="10" cy="-32" r="6"/><circle cx="30" cy="6" r="7"/><circle cx="-12" cy="24" r="6"/><circle cx="-44" cy="12" r="5"/><circle cx="18" cy="30" r="5"/></g>
    </g>
    <g transform="translate(402 152)">
      <circle r="73" fill="#1a120a" fill-opacity=".55"/>
      <circle r="66" fill="url(#g1)"/>
      <circle r="66" fill="none" stroke="#fff3d6" stroke-opacity=".38" stroke-width="2.4"/>
      <g fill="#3c5418" fill-opacity=".4"><circle cx="-20" cy="-14" r="6"/><circle cx="10" cy="-22" r="5"/><circle cx="20" cy="8" r="6"/><circle cx="-6" cy="18" r="5"/></g>
    </g>
    <g transform="translate(582 240)">
      <circle r="83" fill="#1a120a" fill-opacity=".55"/>
      <circle r="76" fill="url(#g2)"/>
      <circle r="76" fill="none" stroke="#fff3d6" stroke-opacity=".38" stroke-width="2.4"/>
      <g fill="#b19a68" fill-opacity=".4"><circle cx="-24" cy="-16" r="7"/><circle cx="8" cy="-26" r="6"/><circle cx="26" cy="6" r="7"/><circle cx="-10" cy="22" r="6"/></g>
    </g>
    <g transform="translate(322 374)">
      <circle r="69" fill="#1a120a" fill-opacity=".55"/>
      <circle r="62" fill="url(#g3)"/>
      <circle r="62" fill="none" stroke="#fff3d6" stroke-opacity=".38" stroke-width="2.4"/>
      <g fill="#0f0a06" fill-opacity=".45"><circle cx="-18" cy="-12" r="6"/><circle cx="10" cy="-20" r="5"/><circle cx="20" cy="8" r="6"/><circle cx="-6" cy="18" r="5"/></g>
    </g>
    <g transform="translate(518 420)">
      <circle r="63" fill="#1a120a" fill-opacity=".55"/>
      <circle r="56" fill="url(#g4)"/>
      <circle r="56" fill="none" stroke="#fff3d6" stroke-opacity=".38" stroke-width="2.4"/>
      <g fill="#4a1522" fill-opacity=".42"><circle cx="-16" cy="-10" r="6"/><circle cx="10" cy="4" r="6"/><circle cx="-2" cy="18" r="5"/></g>
    </g>
    <g transform="translate(718 154)">
      <circle r="55" fill="#1a120a" fill-opacity=".55"/>
      <circle r="48" fill="url(#g5)"/>
      <circle r="48" fill="none" stroke="#fff3d6" stroke-opacity=".38" stroke-width="2.4"/>
      <g fill="#4c5321" fill-opacity=".4"><circle cx="-12" cy="-8" r="5"/><circle cx="8" cy="-14" r="4"/><circle cx="14" cy="6" r="5"/></g>
    </g>

  <g fill="#ffe6a8" fill-opacity=".5"><circle cx="120" cy="440" r="4"/><circle cx="152" cy="470" r="3"/><circle cx="96" cy="486" r="3"/><circle cx="196" cy="462" r="3"/><circle cx="632" cy="112" r="3"/><circle cx="672" cy="86" r="3"/><circle cx="452" cy="272" r="3"/><circle cx="486" cy="300" r="2.5"/><circle cx="240" cy="316" r="3"/><circle cx="790" cy="300" r="3"/><circle cx="820" cy="400" r="3.5"/><circle cx="60" cy="300" r="3"/></g>
  <rect width="900" height="560" filter="url(#n)" opacity=".48"/>
</svg>
